<svg width="2168" height="2168" viewBox="0 0 2168 2168" fill="none" xmlns="http://www.w3.org/2000/svg">
<g clip-path="url(#clip0_6_15)">
<mask id="mask0_6_15" style="mask-type:luminance" maskUnits="userSpaceOnUse" x="0" y="0" width="2168" height="2168">
<path d="M1768 0H400C179.086 0 0 179.086 0 400V1768C0 1988.91 179.086 2168 400 2168H1768C1988.91 2168 2168 1988.91 2168 1768V400C2168 179.086 1988.91 0 1768 0Z" fill="white"/>
</mask>
<g mask="url(#mask0_6_15)">
<path d="M1768 0H400C179.086 0 0 179.086 0 400V1768C0 1988.91 179.086 2168 400 2168H1768C1988.91 2168 2168 1988.91 2168 1768V400C2168 179.086 1988.91 0 1768 0Z" fill="#A5B6F5"/>
<g filter="url(#filter0_f_6_15)">
<path d="M856.465 1570.32C608.93 1240.43 -19.3641 1293.87 -546.869 1689.69C-1074.37 2085.51 -1301.33 2673.81 -1053.8 3003.7C-806.264 3333.59 -177.969 3280.15 349.535 2884.33C877.04 2488.51 1104 1900.21 856.465 1570.32Z" fill="#145BFF"/>
</g>
<g filter="url(#filter1_f_6_15)">
<path d="M2616.46 1451.32C2368.93 1121.43 1740.63 1174.87 1213.13 1570.69C685.623 1966.51 458.662 2554.81 706.198 2884.7C953.733 3214.59 1582.03 3161.15 2109.53 2765.33C2637.04 2369.51 2864 1781.21 2616.46 1451.32Z" fill="#C7EAFE"/>
</g>
<mask id="mask1_6_15" style="mask-type:luminance" maskUnits="userSpaceOnUse" x="200" y="637" width="1787" height="809">
<path d="M1987 637H200V1446H1987V637Z" fill="white"/>
</mask>
<g mask="url(#mask1_6_15)">
<path d="M1420.13 1434.73L1429.26 1403.05C1440.09 1365.39 1436.08 1330.64 1417.83 1305.02C1400.77 1281.45 1372.97 1267.62 1338.93 1265.99L694.707 1257.8C692.686 1257.77 690.701 1257.25 688.923 1256.29C687.145 1255.32 685.625 1253.95 684.494 1252.27C683.363 1250.59 682.654 1248.66 682.428 1246.65C682.201 1244.64 682.463 1242.61 683.192 1240.72C684.287 1237.56 686.285 1234.79 688.939 1232.75C691.593 1230.72 694.785 1229.51 698.119 1229.28L1348.57 1220.74C1425.34 1217.24 1509.27 1154.56 1538.52 1078.05L1575.54 981.043C1576.59 978.321 1577.11 975.422 1577.08 972.504C1577.03 970.955 1576.86 969.413 1576.56 967.893C1556.37 877.665 1507.27 796.516 1436.76 736.802C1366.24 677.088 1278.16 642.081 1185.93 637.111C1093.71 632.141 1002.38 657.48 925.869 709.271C849.356 761.061 791.843 836.465 762.09 924.001C730.504 900.497 692.427 887.356 653.084 886.382C613.741 885.407 575.061 896.647 542.353 918.558C509.645 940.469 484.512 971.978 470.405 1008.76C456.297 1045.54 453.906 1085.79 463.56 1123.99C425.232 1124.98 387.552 1134.11 353.016 1150.78C318.48 1167.45 287.876 1191.28 263.231 1220.68C238.587 1250.09 220.464 1284.4 210.063 1321.34C199.662 1358.29 197.22 1397.02 202.9 1434.98C203.311 1437.98 204.789 1440.73 207.061 1442.72C209.333 1444.71 212.247 1445.82 215.268 1445.83H1405.04C1408.42 1445.86 1411.71 1444.8 1414.43 1442.8C1417.16 1440.8 1419.16 1437.96 1420.13 1434.73Z" fill="white"/>
<path d="M1634.82 988.386C1629.13 988.386 1623.16 988.557 1616.91 988.899C1615.97 988.925 1615.04 989.128 1614.18 989.496C1612.62 990.013 1611.21 990.907 1610.08 992.099C1608.95 993.29 1608.13 994.743 1607.7 996.328L1582.11 1083.94C1571.19 1121.6 1575.2 1156.35 1593.54 1181.97C1602.8 1194.09 1614.73 1203.92 1628.4 1210.68C1642.06 1217.45 1657.1 1220.98 1672.35 1220.99L1809.76 1229.53C1811.68 1229.59 1813.56 1230.1 1815.25 1231.02C1816.94 1231.94 1818.39 1233.24 1819.48 1234.83C1820.64 1236.52 1821.38 1238.46 1821.63 1240.5C1821.88 1242.53 1821.64 1244.6 1820.93 1246.52C1819.84 1249.69 1817.84 1252.46 1815.19 1254.49C1812.53 1256.52 1809.34 1257.73 1806.01 1257.97L1663.31 1266.51C1585.78 1270.09 1502.27 1332.69 1473.02 1409.11L1462.7 1436.09C1462.27 1437.22 1462.11 1438.44 1462.23 1439.64C1462.36 1440.85 1462.77 1442 1463.42 1443.02C1464.08 1444.03 1464.97 1444.88 1466.01 1445.48C1467.06 1446.09 1468.23 1446.44 1469.43 1446.51H1960.99C1963.98 1446.58 1966.91 1445.63 1969.3 1443.82C1971.69 1442 1973.39 1439.43 1974.12 1436.52C1988.77 1384.1 1991.12 1328.99 1980.97 1275.5C1970.82 1222.02 1948.45 1171.61 1915.61 1128.22C1882.77 1084.83 1840.36 1049.63 1791.68 1025.37C1742.99 1001.11 1689.37 988.453 1634.99 988.386H1634.82Z" fill="white"/>
</g>
<g filter="url(#filter2_f_6_15)">
<path d="M898.586 -675.324C523.678 -1174.96 -143.287 -1307.59 -591.122 -971.553C-1038.96 -635.517 -1098.08 41.9322 -723.168 541.571C-348.26 1041.21 318.705 1173.84 766.54 837.801C1214.37 501.764 1273.49 -175.684 898.586 -675.324Z" fill="#FE99CE"/>
</g>
<rect x="111" y="109" width="598" height="598" rx="299" fill="white"/>
<g clip-path="url(#clip1_6_15)">
<path d="M275.361 570.69C275.361 570.69 306.483 482.8 352.031 482.8C397.578 482.8 428.701 570.69 428.701 570.69" fill="black"/>
<path d="M275.361 570.69C275.361 570.69 306.483 482.8 352.031 482.8C397.578 482.8 428.701 570.69 428.701 570.69" stroke="black" stroke-width="37.4" stroke-miterlimit="10" stroke-linecap="round" stroke-linejoin="round"/>
<path d="M410 520.201C410 520.201 449.414 423.382 499.982 426.701C541.355 429.417 578.3 498.384 578.3 498.384" fill="black" stroke="black" stroke-width="37.4" stroke-miterlimit="10" stroke-linecap="round" stroke-linejoin="round"/>
<path d="M241.7 534.225V281.775C241.7 258.634 256.847 239.7 275.36 239.7H544.64C563.153 239.7 578.3 258.634 578.3 281.775V534.225C578.3 557.366 563.153 576.3 544.64 576.3H275.36C256.847 576.3 241.7 557.366 241.7 534.225Z" stroke="black" stroke-width="37.4" stroke-miterlimit="10" stroke-linejoin="round"/>
<path d="M241.7 534.225V281.775C241.7 258.634 256.847 239.7 275.36 239.7H544.64C563.153 239.7 578.3 258.634 578.3 281.775V534.225C578.3 557.366 563.153 576.3 544.64 576.3H275.36C256.847 576.3 241.7 557.366 241.7 534.225Z" stroke="black" stroke-width="37.4" stroke-miterlimit="10" stroke-linejoin="round"/>
<circle cx="344.55" cy="361.25" r="46.75" stroke="black" stroke-width="37.4"/>
<ellipse cx="496.5" cy="527.5" rx="83.5" ry="46.5" fill="black"/>
</g>
</g>
</g>
<defs>
<filter id="filter0_f_6_15" x="-1953.98" y="554.016" width="3710.63" height="3465.99" filterUnits="userSpaceOnUse" color-interpolation-filters="sRGB">
<feFlood flood-opacity="0" result="BackgroundImageFix"/>
<feBlend mode="normal" in="SourceGraphic" in2="BackgroundImageFix" result="shape"/>
<feGaussianBlur stdDeviation="400" result="effect1_foregroundBlur_6_15"/>
</filter>
<filter id="filter1_f_6_15" x="-193.986" y="435.016" width="3710.63" height="3465.99" filterUnits="userSpaceOnUse" color-interpolation-filters="sRGB">
<feFlood flood-opacity="0" result="BackgroundImageFix"/>
<feBlend mode="normal" in="SourceGraphic" in2="BackgroundImageFix" result="shape"/>
<feGaussianBlur stdDeviation="400" result="effect1_foregroundBlur_6_15"/>
</filter>
<filter id="filter2_f_6_15" x="-1582.44" y="-1769.86" width="3340.31" height="3405.96" filterUnits="userSpaceOnUse" color-interpolation-filters="sRGB">
<feFlood flood-opacity="0" result="BackgroundImageFix"/>
<feBlend mode="normal" in="SourceGraphic" in2="BackgroundImageFix" result="shape"/>
<feGaussianBlur stdDeviation="306.308" result="effect1_foregroundBlur_6_15"/>
</filter>
<clipPath id="clip0_6_15">
<rect width="2168" height="2168" fill="white"/>
</clipPath>
<clipPath id="clip1_6_15">
<rect width="374" height="374" fill="white" transform="translate(223 221)"/>
</clipPath>
</defs>
</svg>
